# xmcd CD database file
#
# Track frame offsets:
#	150
#	21500
#	41223
#	58965
#	79601
#	102804
#	129326
#	154647
#	173684
#	195347
#	219034
#	244027
#	268167
#	288761
#	310449
#	325495
#	339555
#
# Disc length: 4792 seconds
#
# Revision: 0
# Processed by: cddbd v1.5.2PL0 Copyright (c) Steve Scherf et al.
# Submitted via: CDex 1.70beta2
#
DISCID=ee12b611
DTITLE=Vari - Las Mejores Salsa del 2008
DYEAR=2008
DGENRE=Salsa
TTITLE0=El Amor De Mi Vida - Gruppo Galè
TTITLE1=Los Campeones De La Salsa - Willy Chirino
TTITLE2=Aquel Lugar - Los Adoloscentes
TTITLE3=Conteo Regresivo - Gilberto Santarosa
TTITLE4=Guarachando - Samà
TTITLE5=Gozando En La Habana - A. Alvarez
TTITLE6=El Tumbao De Cachao - Jonny Polanco
TTITLE7=Rosita Y Laura - Klimax ft P. Milanesw
TTITLE8=Un Poquito Al Reves - Pupy
TTITLE9=Me Mantengo - Los Van Van
TTITLE10=Mi Destino - Maikel Blanco
TTITLE11=Aguanile' - M.Antony
TTITLE12=Mani Picao - Ricky Campanelli
TTITLE13=Quiero Decirte Que Te Amo
TTITLE14=Bachata Rosa - Marlon
TTITLE15=Mi Major Sacrificio - T.Nieves ft M.A.Solis
TTITLE16=La Palomita - Alberto Barros
EXTD=YEAR: 2008
EXTT0=
EXTT1=
EXTT2=
EXTT3=
EXTT4=
EXTT5=
EXTT6=
EXTT7=
EXTT8=
EXTT9=
EXTT10=
EXTT11=
EXTT12=
EXTT13=
EXTT14=
EXTT15=
EXTT16=
PLAYORDER=
